<?xml version="1.0" encoding="utf-8"?>
<!-- Generator: Adobe Illustrator 24.0.1, SVG Export Plug-In . SVG Version: 6.00 Build 0)  -->
<svg version="1.1" id="Layer_1" xmlns="http://www.w3.org/2000/svg" xmlns:xlink="http://www.w3.org/1999/xlink" x="0px" y="0px"
	 viewBox="0 0 500 500" style="enable-background:new 0 0 500 500;" xml:space="preserve">
<style type="text/css">
	.st0{fill:#1D1D1B;}
</style>
<g>
	<g>
		<path class="st0" d="M308.7,367.7c-8.9,0-17.3-1.3-25.4-3.8c-9.4-3-19.8-6.5-33.1-12.2c-48.4-20.9-83.3-63.7-99.8-87.3
			c-0.3-0.5-0.6-0.9-0.8-1.1c-7.6-10.1-25.3-36.8-25.3-65.3c0-30.7,15.3-47,21.8-54c0.4-0.4,0.7-0.7,1-1.1
			c9.1-10,19.9-11.1,24.1-11.1c3.5,0,7.7,0,11.3,0.2c0.2,0,0.4,0,0.6,0c6.7,0,16.5,1.7,22.9,17.3c1.6,3.9,4,9.7,6.5,15.8
			c4,9.7,9.5,23,10.4,24.9c3.6,7.3,3.8,14.3,0.4,21c-0.2,0.5-0.5,1-0.7,1.4c-1.5,3.2-3.1,6.4-6.6,10.4c-0.8,1-1.7,2.1-2.6,3.1
			c-1.8,2.1-3.6,4.3-5.4,6.3c4.2,6.9,13.9,21.3,27.1,33.1c16.4,14.6,30.4,20.7,37.9,23.9c1.2,0.5,2.3,1,3.2,1.4
			c4.7-5.5,12.3-14.7,14.9-18.5c9.3-14.1,22.8-9.2,27.2-7.6c6.8,2.5,39.3,18.6,39.6,18.8c1,0.5,2,1,2.9,1.4
			c5.1,2.5,9.9,4.8,12.9,9.9l0,0c4.8,8,2.2,24.9-2.2,37.2c-6.8,19.2-34.7,32.8-47.7,34.7C318.8,367.3,313.7,367.7,308.7,367.7z
			 M171.4,156.9c-0.5,0-3.1,0.1-5.7,2.9c-0.4,0.4-0.8,0.8-1.2,1.3c-5.3,5.6-15.1,16.1-15.1,36.9c0,21.6,15.5,43.9,20.3,50.3
			c0.3,0.4,0.7,0.9,1.3,1.8c15,21.5,46.5,60.2,89.2,78.7c12.2,5.3,22,8.6,30.7,11.4c11.8,3.8,22.6,2.8,29.6,1.8
			c7.8-1.2,25.2-11.1,27.8-18.4c2.4-6.7,3.2-12.2,3.3-15.5c-0.5-0.2-0.9-0.5-1.4-0.7c-1-0.5-2.1-1-3.2-1.6
			c-8.4-4.2-31.2-15.3-36.3-17.4c-5.8,7.9-17,20.8-17.1,21c-5,5.7-13.7,11-27.1,4.3c-0.6-0.3-1.8-0.8-3.1-1.4
			c-8.2-3.6-25.2-10.9-44.6-28.2c-17.5-15.6-29.3-34.4-33.6-41.8c-4.2-7.3-3.4-13.5-2-17.4c1.6-4.4,4.6-7.4,6.4-9.2
			c1.3-1.2,3-3.4,4.8-5.5c1-1.2,2-2.4,2.9-3.5c1.4-1.6,1.9-2.6,3.1-5.2c0.1-0.2,0.2-0.3,0.2-0.5c-1.1-2.3-4.4-10.3-11-26.3
			c-2.5-6.1-4.9-11.9-6.5-15.7c-0.3-0.8-0.6-1.4-0.9-1.9c-0.3,0-0.5,0-0.8,0C178.3,156.9,174.6,156.9,171.4,156.9z M351.6,304.9
			C351.6,304.9,351.6,304.9,351.6,304.9S351.6,304.9,351.6,304.9z M312.4,285.8L312.4,285.8C312.4,285.8,312.4,285.8,312.4,285.8z
			 M201.2,199.9C201.2,199.9,201.2,199.9,201.2,199.9C201.2,199.9,201.2,199.9,201.2,199.9z"/>
	</g>
	<g>
		<path class="st0" d="M483.8,244c-0.2-14.9-1.9-29.7-5.1-44.2c-11.2-50.9-36.6-93.5-76-127.5c-41.1-35.5-89-54.1-143.3-56.5
			c-19.4-0.9-38.7,0.7-57.7,4.8c-55.2,12-100.4,40.2-135.4,84.4c-30.8,38.9-47.3,83.4-49.9,133c-1,18.3,0.3,36.4,3.7,54.4
			c4.9,26.3,14.1,51.1,27.6,74.2c0.8,1.4,0.9,2.6,0.5,4c-8.6,31.1-17.1,62.2-25.6,93.4c-1.8,6.7-3.7,13.4-5.6,20.5
			c1.1-0.2,1.8-0.3,2.5-0.5c9.2-2.4,18.4-4.8,27.6-7.2c28.9-7.6,57.8-15.1,86.7-22.8c1.6-0.4,2.9-0.2,4.3,0.6
			c2.8,1.6,5.8,3.1,8.7,4.6c29.4,14.4,60.4,22.3,93.2,23.8c23.2,1,46-1.3,68.4-7.1c42.8-11.1,79.7-32.5,110.1-64.5
			C462.9,364.5,484.6,308.6,483.8,244z M455.7,266.6c-3.7,42.1-18.7,79.8-45.4,112.6c-29.4,36.1-66.9,59.7-112.1,70.8
			c-19.8,4.9-39.9,6.5-60.2,5.3c-34-2.1-65.6-11.8-94.7-29.5c-2.3-1.4-4.3-1.6-6.9-0.9c-26.2,7-52.4,13.8-78.6,20.7
			c-0.4,0.1-0.8,0.2-1.6,0.3c0.7-2.6,1.3-4.9,1.9-7.1c6.6-24.1,13.2-48.2,19.9-72.3c0.5-1.7,0.3-3-0.7-4.4
			c-12.5-19.2-21.6-39.9-27.2-62.1c-3.7-14.8-5.9-29.8-6.2-45c-1-57.3,18.2-106.9,57.6-148.5c26.7-28.1,59.1-46.8,96.5-56.8
			c20.9-5.5,42.2-7.6,63.7-6.4c83.6,4.7,155.8,59.1,183.4,138c5.4,15.5,8.9,31.5,10.4,47.9C456.7,241.7,456.8,254.1,455.7,266.6z"/>
	</g>
</g>
</svg>
