<?xml version="1.0" encoding="utf-8"?>
<!-- Generator: Adobe Illustrator 24.0.1, SVG Export Plug-In . SVG Version: 6.00 Build 0)  -->
<svg version="1.1" id="Layer_1" xmlns="http://www.w3.org/2000/svg" xmlns:xlink="http://www.w3.org/1999/xlink" x="0px" y="0px"
	 viewBox="0 0 500 500" style="enable-background:new 0 0 500 500;" xml:space="preserve">
<style type="text/css">
	.st0{fill:#1D1D1B;}
</style>
<g>
	<g>
		<g>
			<g>
				<path class="st0" d="M419.1,80.9C373.9,35.7,313.9,10.8,250,10.8S126.1,35.7,80.9,80.9c-45.2,45.2-70,105.2-70,169.1
					s24.9,123.9,70,169.1c45.2,45.2,105.2,70,169.1,70s123.9-24.9,169.1-70c45.2-45.2,70-105.2,70-169.1S464.3,126.1,419.1,80.9z
					 M250,463.6c-57.1,0-110.7-22.2-151.1-62.6c-40.3-40.4-62.6-94-62.6-151.1c0-117.8,95.8-213.6,213.6-213.6
					c57.1,0,110.7,22.2,151.1,62.6c40.3,40.3,62.6,94,62.6,151.1s-22.2,110.7-62.6,151.1C360.7,441.4,307.1,463.6,250,463.6z"/>
			</g>
		</g>
	</g>
	<g>
		<g>
			<g>
				<path class="st0" d="M260.6,112.9c-75.2,0-115.1,50.5-115.1,105.4c0,25.5,13.6,57.3,35.4,67.5c3.3,1.5,5.1,0.9,5.8-2.3
					c0.6-2.4,3.5-14.3,4.8-19.8c0.4-1.8,0.2-3.3-1.2-5c-7.2-8.7-13-24.8-13-39.7c0-38.4,29.1-75.6,78.6-75.6
					c42.8,0,72.8,29.2,72.8,70.9c0,47.1-23.8,79.8-54.8,79.8c-17.1,0-29.9-14.1-25.8-31.5c4.9-20.7,14.4-43.1,14.4-58
					c0-13.4-7.2-24.5-22-24.5c-17.5,0-31.5,18.1-31.5,42.3c0,15.4,5.2,25.9,5.2,25.9s-17.3,73-20.4,86.6
					c-3.1,13.1-2.4,30.9-1.2,44.4c0.3,3.4,2.6,6.2,5.8,7.4c3.9,1.4,8.3-0.2,10.4-3.8c6.7-11.5,14.7-26.8,18-39.5
					c2.1-8.1,10.8-41.4,10.8-41.4c5.7,10.8,22.3,20,39.9,20c52.5,0,90.4-48.3,90.4-108.3C368,156,321,112.9,260.6,112.9L260.6,112.9
					z"/>
			</g>
		</g>
	</g>
</g>
</svg>
