<?xml version="1.0" encoding="utf-8"?>
<!-- Generator: Adobe Illustrator 24.0.1, SVG Export Plug-In . SVG Version: 6.00 Build 0)  -->
<svg version="1.1" id="Layer_1" xmlns="http://www.w3.org/2000/svg" xmlns:xlink="http://www.w3.org/1999/xlink" x="0px" y="0px"
	 viewBox="0 0 500 500" style="enable-background:new 0 0 500 500;" xml:space="preserve">
<style type="text/css">
	.st0{fill:#1D1D1B;}
</style>
<g>
	<g>
		<g>
			<g>
				<path class="st0" d="M419.1,80.9C373.9,35.7,313.9,10.8,250,10.8S126.1,35.7,80.9,80.9c-45.2,45.2-70,105.2-70,169.1
					s24.9,123.9,70,169.1c45.2,45.2,105.2,70,169.1,70s123.9-24.9,169.1-70c45.2-45.2,70-105.2,70-169.1S464.3,126.1,419.1,80.9z
					 M401.1,401.1c-40.3,40.3-94,62.6-151.1,62.6c-117.8,0-213.6-95.8-213.6-213.6S132.2,36.4,250,36.4
					c57.1,0,110.7,22.2,151.1,62.6c40.3,40.3,62.6,94,62.6,151.1S441.4,360.7,401.1,401.1z"/>
			</g>
		</g>
	</g>
	<g>
		<g>
			<g>
				<path class="st0" d="M323.6,184.7c0,8.9-7.2,16.1-16.1,16.1c-8.9,0-16.1-7.2-16.1-16.1s7.2-16.1,16.1-16.1
					C316.4,168.6,323.6,175.9,323.6,184.7z"/>
			</g>
			<g>
				<path class="st0" d="M363.6,198.9c-0.5-11.6-2.2-20.6-5.6-29.2c-3.3-8.5-7.6-15.1-14-21.5c-6.4-6.4-13-10.7-21.5-14
					c-8.6-3.3-17.6-5.1-29.1-5.6c-12.6-0.6-16.8-0.7-48.5-0.7s-35.9,0.1-48.5,0.7c-11.6,0.5-20.6,2.3-29.2,5.6
					c-8.5,3.3-15.1,7.6-21.5,14c-6.4,6.4-10.7,13-14,21.5c-3.3,8.6-5.1,17.6-5.6,29.2c-0.6,12.7-0.7,16.8-0.7,48.5
					s0.1,35.9,0.7,48.5c0.5,11.6,2.2,20.5,5.6,29.2c3.3,8.5,7.6,15.1,14,21.5c6.4,6.4,13,10.7,21.5,14c8.6,3.3,17.6,5.1,29.2,5.6
					c12.6,0.6,16.8,0.7,48.5,0.7c31.7,0,35.9-0.1,48.5-0.7c11.5-0.5,20.5-2.2,29.1-5.6c8.5-3.3,15.1-7.6,21.5-14
					c6.4-6.4,10.7-13,14-21.5c3.3-8.6,5.1-17.6,5.6-29.2c0.6-12.6,0.7-16.8,0.7-48.5C364.3,215.8,364.2,211.6,363.6,198.9z
					 M338.5,294.8c-0.5,11.2-2.4,17.2-3.9,21.2c-2,5.2-4.5,8.9-8.3,12.8c-3.9,3.9-7.6,6.3-12.8,8.3c-4,1.5-10,3.4-21.2,3.9
					c-12.4,0.6-16.1,0.7-47.4,0.7c-31.3,0-35-0.1-47.4-0.7c-11.2-0.5-17.2-2.4-21.2-3.9c-5.2-2-8.9-4.4-12.8-8.3
					c-3.9-3.9-6.3-7.6-8.3-12.8c-1.6-4-3.4-10-3.9-21.2c-0.6-12.3-0.7-16-0.7-47.4c0-31.3,0.1-35.1,0.7-47.4
					c0.5-11.2,2.3-17.2,3.9-21.2c2-5.2,4.4-8.9,8.3-12.8c3.9-3.9,7.6-6.3,12.8-8.3c4-1.5,10-3.4,21.2-3.9
					c12.4-0.6,16.1-0.7,47.4-0.7c31.3,0,35,0.1,47.4,0.7c11.2,0.5,17.2,2.4,21.2,3.9c5.2,2,8.9,4.4,12.8,8.3
					c3.9,3.9,6.3,7.6,8.3,12.8c1.5,4,3.4,10,3.9,21.2c0.6,12.3,0.7,16,0.7,47.4C339.2,278.8,339,282.5,338.5,294.8z"/>
				<path class="st0" d="M244.8,185.1c-34.4,0-62.3,28-62.3,62.3c0,34.4,28,62.3,62.3,62.3c34.4,0,62.3-28,62.3-62.3
					C307.2,213.1,279.2,185.1,244.8,185.1z M244.8,284.6c-20.5,0-37.2-16.7-37.2-37.2c0-20.5,16.7-37.2,37.2-37.2
					c20.5,0,37.1,16.7,37.1,37.2C282,267.9,265.3,284.6,244.8,284.6z"/>
			</g>
		</g>
	</g>
</g>
</svg>
