<?xml version="1.0" encoding="utf-8"?>
<!-- Generator: Adobe Illustrator 24.0.1, SVG Export Plug-In . SVG Version: 6.00 Build 0)  -->
<svg version="1.1" id="Layer_1" xmlns="http://www.w3.org/2000/svg" xmlns:xlink="http://www.w3.org/1999/xlink" x="0px" y="0px"
	 viewBox="0 0 500 500" style="enable-background:new 0 0 500 500;" xml:space="preserve">
<style type="text/css">
	.st0{fill:#1D1D1B;}
</style>
<g>
	<g>
		<g>
			<g>
				<path class="st0" d="M350.6,451.5c-0.6,0-1.2,0-1.8-0.1c-69.2-5-142.4-41.2-200.7-99.5c-58.3-58.3-94.6-131.4-99.6-200.6l0,0
					c-2-28.3,44.5-87.1,77.8-98.4c10.7-3.6,43.3-14.7,61.8,21l25,46.3c9,16.8,3.8,32.4-15.5,46.4c-27.6,20-26.6,23.9-16.9,41.3
					c13.4,24,29.8,41.2,49.8,61.2c20,20,37.3,36.4,61.3,49.8c17.4,9.7,21.3,10.7,41.4-16.9c14-19.3,29.7-24.5,46.4-15.5l46.5,25.1
					c35.5,18.4,24.5,51,20.9,61.7C435.9,406.1,379.4,451.5,350.6,451.5z M149.6,74.3c-3.9,0-8.7,1-15,3.1
					c-26.2,8.9-61.2,59.3-60.3,72.1l0,0c4.5,63.1,38.1,130.2,92.1,184.1c54,53.9,121.2,87.5,184.3,92c0.2,0,0.3,0,0.5,0
					c13.5,0,62.6-34.6,71.4-60.6c6.5-19.1,2.6-24.9-8.5-30.6l-46.7-25.2c-3-1.6-5.4-2.9-13.3,8c-23.1,31.8-40.2,43.6-74.8,24.3
					c-26.8-15-46.2-33.3-66.9-54.1c-20.7-20.7-39.1-40.1-54.1-66.9c-19.3-34.6-7.5-51.6,24.3-74.8c10.9-7.9,9.6-10.3,8-13.3
					l-25.1-46.5C161.5,78.5,157.5,74.3,149.6,74.3z"/>
			</g>
		</g>
	</g>
	<g>
		<g>
			<g>
				<path class="st0" d="M174.6,174.9c-4.5,0-8.8-2.3-11.2-6.5l-50.3-88c-3.5-6.2-1.4-14.1,4.8-17.6c6.2-3.5,14.1-1.4,17.6,4.8
					l50.3,88c3.5,6.2,1.4,14.1-4.8,17.6C178.9,174.4,176.7,174.9,174.6,174.9z"/>
			</g>
		</g>
	</g>
	<g>
		<g>
			<g>
				<path class="st0" d="M426,388.6c-2.2,0-4.4-0.5-6.4-1.7l-88-50.3c-6.2-3.5-8.3-11.4-4.8-17.6c3.5-6.2,11.4-8.3,17.6-4.8l88,50.3
					c6.2,3.5,8.3,11.4,4.8,17.6C434.8,386.3,430.5,388.6,426,388.6z"/>
			</g>
		</g>
	</g>
</g>
</svg>
