<?xml version="1.0" encoding="utf-8"?>
<!-- Generator: Adobe Illustrator 24.0.1, SVG Export Plug-In . SVG Version: 6.00 Build 0)  -->
<svg version="1.1" id="Layer_1" xmlns="http://www.w3.org/2000/svg" xmlns:xlink="http://www.w3.org/1999/xlink" x="0px" y="0px"
	 viewBox="0 0 500 500" style="enable-background:new 0 0 500 500;" xml:space="preserve">
<style type="text/css">
	.st0{fill:#1D1D1B;}
</style>
<g>
	<g>
		<g>
			<g>
				<path class="st0" d="M463.7,413.8H36.3c-7.1,0-12.9-5.8-12.9-12.9V99.1c0-7.1,5.8-12.9,12.9-12.9h427.4
					c7.1,0,12.9,5.8,12.9,12.9v301.7C476.6,408,470.8,413.8,463.7,413.8z M49.2,388h401.6V112H49.2V388z"/>
			</g>
		</g>
	</g>
	<g>
		<g>
			<g>
				<path class="st0" d="M250,262.9c-2.6,0-5.2-0.8-7.4-2.4L28.8,109.7c-5.8-4.1-7.2-12.2-3.1-18c4.1-5.8,12.2-7.2,18-3.1L250,234.2
					L456.3,88.6c5.8-4.1,13.9-2.7,18,3.1c4.1,5.8,2.7,13.9-3.1,18L257.4,260.5C255.2,262.1,252.6,262.9,250,262.9z"/>
			</g>
		</g>
	</g>
	<g>
		<g>
			<g>
				<path class="st0" d="M463.7,400.9"/>
			</g>
		</g>
	</g>
	<g>
		<g>
			<g>
				<path class="st0" d="M400.9,338.3c-3.2,0-6.3-1.2-8.8-3.5L281.5,230.9c-5.2-4.9-5.4-13-0.6-18.2c4.9-5.2,13-5.4,18.2-0.6
					L409.7,316c5.2,4.9,5.4,13,0.6,18.2C407.7,337,404.3,338.3,400.9,338.3z"/>
			</g>
		</g>
	</g>
	<g>
		<g>
			<g>
				<path class="st0" d="M99.1,338.3c-3.4,0-6.9-1.4-9.4-4.1c-4.9-5.2-4.6-13.4,0.6-18.2l110.5-103.9c5.2-4.9,13.4-4.6,18.2,0.6
					c4.9,5.2,4.6,13.4-0.6,18.2L108,334.8C105.5,337.2,102.3,338.3,99.1,338.3z"/>
			</g>
		</g>
	</g>
</g>
</svg>
