<?xml version="1.0" encoding="utf-8"?>
<!-- Generator: Adobe Illustrator 24.0.1, SVG Export Plug-In . SVG Version: 6.00 Build 0)  -->
<svg version="1.1" id="Layer_1" xmlns="http://www.w3.org/2000/svg" xmlns:xlink="http://www.w3.org/1999/xlink" x="0px" y="0px"
	 viewBox="0 0 500 500" style="enable-background:new 0 0 500 500;" xml:space="preserve">
<style type="text/css">
	.st0{fill:#1D1D1B;}
</style>
<g>
	<g>
		<g>
			<g>
				<g>
					<g>
						<g>
							<path class="st0" d="M387.2,460.4l-0.6,0.5c-1.5,1.1-38.5,27-110.5,31.1c-8,0.5-16.2,0.7-24.4,0.7
								c-58.8,0-101.4-11.9-103.1-12.4l-0.5-0.2c-0.1,0-11.7-4.6-22.7-12.1c-11-7.4-23.1-19.2-18.5-32.8c3.5-10.2,17-19.5,41.4-28.4
								c17.3-6.3,33.6-10,33.8-10l3.3-0.8l18.2,26.6l-8.4,0.8c-12.8,1.2-48.1,6.5-58.4,16.8c-1.6,1.6-1.6,2.5-1.4,3.1
								c2.1,6.5,23.7,15.5,39.9,18.3c16.9,2.9,75.8,6.3,100.4,5.2c10.5-0.5,30.7-2.7,50.2-6.5c30.2-5.8,37.3-11.1,38.7-12.5
								c2.3-2.3,2-3.7,1.9-4.2c-0.9-3.9-8.4-8.8-13.3-10.6c-10.9-3.9-46.5-10.2-46.8-10.2l-7.3-1.3l16-25.5l3.5,0.8
								c44.9,10.2,70.2,24,75,41.1C396.9,450.8,387.6,460,387.2,460.4z"/>
						</g>
					</g>
				</g>
			</g>
		</g>
	</g>
	<g>
		<g>
			<g>
				<g>
					<path class="st0" d="M250,222.7c-38.9,0-70.5-31.6-70.5-70.5s31.6-70.5,70.5-70.5s70.5,31.6,70.5,70.5S288.9,222.7,250,222.7z
						 M250,106.7c-25.1,0-45.5,20.4-45.5,45.5s20.4,45.5,45.5,45.5s45.5-20.4,45.5-45.5S275.1,106.7,250,106.7z"/>
				</g>
			</g>
		</g>
	</g>
	<g>
		<g>
			<g>
				<path class="st0" d="M397.4,129.2c-2.3-16.3-7.5-31.6-15.4-46c-11.6-21-27.7-38-47.8-51.1c-22.9-14.9-48.1-22.9-75.4-24.5
					c-16.2-0.9-32.1,0.5-47.8,4.6c-34.2,9-62.2,27.2-83.3,55.7c-17.2,23.3-26.1,49.6-26.5,78.6c-0.2,9.8,1.6,19.3,4,28.8
					c3.5,13.8,8.2,27.1,13.5,40.3c8.8,22.2,18.8,44,29.8,65.2c9.9,19.3,20,38.6,30.5,57.6c21.6,39.4,44.7,77.9,68.8,115.8
					c0.7,1.1,1.3,2.2,2,3.4h0.2c0.2-0.5,0.5-0.9,0.7-1.3c27.9-43.8,54.3-88.4,79.1-134.1c13.9-25.6,27.2-51.5,39.2-78
					c8.8-19.4,16.9-39,23-59.4c2.7-8.9,4.9-18,6-27.2C399.3,148.1,398.7,138.6,397.4,129.2z M371.8,150.8c-0.3,7.3-2,14.5-3.9,21.5
					c-4.2,15.5-10.1,30.5-16.4,45.2c-13.1,30.7-28.3,60.5-44.2,89.9c-18,33.3-37,66.1-56.7,98.5c-0.2,0.3-0.4,0.6-0.7,1
					c-3.5-5.8-6.9-11.4-10.2-17c-14.3-24-28.4-48.1-41.7-72.7c-10.2-19-20.2-38-29.9-57.2c-10.7-21.3-20.6-43-28.8-65.4
					c-3.7-10-6.9-20.2-9.3-30.6c-3.1-13.6-2.3-27.1,0.9-40.5c4.7-19.7,14.2-36.7,28.2-51.3c17.5-18.2,38.7-29.7,63.3-35.1
					c12.4-2.7,24.9-3.6,37.5-2.6c27,2.2,51.2,11.7,71.9,29.3c16.3,13.8,28,30.7,34.7,51C370.5,126.5,372.3,138.5,371.8,150.8z"/>
			</g>
		</g>
	</g>
</g>
</svg>
