<?xml version="1.0" encoding="utf-8"?>
<!-- Generator: Adobe Illustrator 24.0.1, SVG Export Plug-In . SVG Version: 6.00 Build 0)  -->
<svg version="1.1" id="Layer_1" xmlns="http://www.w3.org/2000/svg" xmlns:xlink="http://www.w3.org/1999/xlink" x="0px" y="0px"
	 viewBox="0 0 500 500" style="enable-background:new 0 0 500 500;" xml:space="preserve">
<style type="text/css">
	.st0{fill:#1D1D1B;}
</style>
<g>
	<g>
		<g>
			<g>
				<path class="st0" d="M419.1,80.9C373.9,35.7,313.9,10.8,250,10.8S126.1,35.7,80.9,80.9c-45.2,45.2-70,105.2-70,169.1
					s24.9,123.9,70,169.1c45.2,45.2,105.2,70,169.1,70s123.9-24.9,169.1-70c45.2-45.2,70-105.2,70-169.1S464.3,126.1,419.1,80.9z
					 M250,463.6c-117.8,0-213.6-95.8-213.6-213.6S132.2,36.4,250,36.4c57.1,0,110.7,22.2,151.1,62.6c40.3,40.3,62.6,94,62.6,151.1
					C463.6,367.8,367.8,463.6,250,463.6z"/>
			</g>
		</g>
	</g>
	<g>
		<g>
			<g>
				<path class="st0" d="M285.4,166.6l26.8,0c6.4,0,11.6-5.2,11.6-11.6v-45.2c0-5.8-4.3-10.7-10.1-11.5c-4.1-0.5-20.3-2.1-40.5-2.1
					c-46.5,0-76.6,30.8-76.6,78.4v25.7h-32.1c-6.4,0-11.6,5.2-11.6,11.6v50.6c0,6.4,5.2,11.6,11.6,11.6h32.1v118.1
					c0,6.4,5.2,11.6,11.6,11.6h52.2c6.4,0,11.6-5.2,11.6-11.6V274.1h32c5.8,0,10.8-4.3,11.5-10.1l6.5-50.6c0.4-3.3-0.6-6.6-2.8-9.1
					c-2.2-2.5-5.4-3.9-8.7-3.9H272v-20.7C272,168.9,273.1,166.6,285.4,166.6z M260.4,250.9c-6.4,0-11.6,5.2-11.6,11.6v118.1h-29
					V262.5c0-6.4-5.2-11.6-11.6-11.6h-32.1v-27.4h32.1c6.4,0,11.6-5.2,11.6-11.6v-37.3c0-35.1,19.5-55.2,53.4-55.2
					c11.6,0,21.6,0.5,27.4,1v23.1l-15.2,0c-15.5,0-26.3,5-32,14.9c-4.6,8-4.6,17-4.6,21.3v32.3c0,6.4,5.2,11.6,11.6,11.6h36.9
					l-3.5,27.4H260.4z"/>
			</g>
		</g>
	</g>
</g>
</svg>
