<?xml version="1.0" encoding="utf-8"?>
<!-- Generator: Adobe Illustrator 24.0.1, SVG Export Plug-In . SVG Version: 6.00 Build 0)  -->
<svg version="1.1" id="Layer_1" xmlns="http://www.w3.org/2000/svg" xmlns:xlink="http://www.w3.org/1999/xlink" x="0px" y="0px"
	 viewBox="0 0 500 500" style="enable-background:new 0 0 500 500;" xml:space="preserve">
<style type="text/css">
	.st0{fill:#1D1D1B;}
</style>
<g>
	<g>
		<g>
			<g>
				<path class="st0" d="M419.1,80.9C373.9,35.7,313.9,10.8,250,10.8S126.1,35.7,80.9,80.9c-45.2,45.2-70,105.2-70,169.1
					s24.9,123.9,70,169.1c45.2,45.2,105.2,70,169.1,70s123.9-24.9,169.1-70c45.2-45.2,70-105.2,70-169.1S464.3,126.1,419.1,80.9z
					 M250,463.6c-117.8,0-213.6-95.8-213.6-213.6c0-57.1,22.2-110.7,62.6-151.1c40.3-40.4,94-62.6,151.1-62.6s110.7,22.2,151.1,62.6
					c40.3,40.3,62.6,94,62.6,151.1C463.6,367.8,367.8,463.6,250,463.6z"/>
			</g>
		</g>
	</g>
	<g>
		<g>
			<g>
				<path class="st0" d="M391.9,195.4l0-0.2c-0.3-2.3-3.5-22.4-13.7-32.8c-12.1-12.7-25.7-14-32.2-14.6l-2-0.2
					c-37.2-2.7-93.5-2.7-94-2.7c-0.6,0-56.7,0-94.4,2.8l-1.5,0.2c-6.5,0.6-20.1,1.9-32.1,14.5c-10.4,10.5-13.5,30.8-13.8,33.1
					c-0.1,0.9-2.8,22.4-2.8,44.5V260c0,21.4,2.5,42.3,2.8,44.7c0.3,2.3,3.5,22.5,13.7,32.8c11.3,11.8,25.2,13.5,32.7,14.4l0.5,0
					c0.9,0.1,1.8,0.2,2.4,0.3c0.3,0.1,0.7,0.1,1,0.2c21.8,2.1,90.9,2.7,91.6,2.7h0c0.5,0,56.9-0.1,94.5-2.9l1.5-0.2
					c6.5-0.6,20.1-2,32.1-14.5c10.2-10.3,13.3-29.4,13.8-33.2c0.3-2.3,2.7-23.3,2.7-44.4v-20.2C394.6,218.8,392.2,197.8,391.9,195.4
					z M342.3,329.2c-36.3,2.6-91.7,2.7-92.2,2.7c-0.7,0-67.8-0.6-89-2.6c-1-0.2-2.2-0.3-3.8-0.5c-6.2-0.8-13.2-1.6-18.8-7.5
					c-3.4-3.5-6.4-13.7-7.3-19.7c0-0.2-2.6-21-2.6-41.6v-20.2c0-20.1,2.5-40.6,2.5-41.4c0.8-5.9,3.8-16.3,7.5-20
					c6.1-6.4,12.5-7.1,17.7-7.6l1.4-0.1c36.4-2.6,91.8-2.7,92.4-2.7c0.6,0,55.9,0,91.8,2.6l1.9,0.2c5.1,0.5,11.5,1.1,17.8,7.7
					c3.2,3.2,6.3,12.8,7.3,19.8c0.3,2.2,2.6,22,2.6,41.5V260c0,19.3-2.3,39.2-2.5,41.4v0c-1,7-4.2,16.7-7.5,20
					c-6.1,6.4-12.5,7.1-17.7,7.6L342.3,329.2z"/>
				<path class="st0" d="M299.8,237l-71.9-37.5c-3.6-1.9-7.9-1.7-11.4,0.4c-3.4,2.1-5.6,5.9-5.6,9.9v74.8c0,4,2.1,7.8,5.6,9.9
					c1.8,1.1,3.9,1.7,6,1.7c1.8,0,3.7-0.5,5.3-1.3l71.9-37.2c3.8-2,6.2-5.9,6.3-10.3C306,242.9,303.6,239,299.8,237z M269.3,247.2
					l-35.2,18.2v-36.6L269.3,247.2z"/>
			</g>
		</g>
	</g>
</g>
</svg>
