<?xml version="1.0" encoding="utf-8"?>
<!-- Generator: Adobe Illustrator 24.0.1, SVG Export Plug-In . SVG Version: 6.00 Build 0)  -->
<svg version="1.1" id="Layer_1" xmlns="http://www.w3.org/2000/svg" xmlns:xlink="http://www.w3.org/1999/xlink" x="0px" y="0px"
	 viewBox="0 0 500 181" style="enable-background:new 0 0 500 181;" xml:space="preserve">
<style type="text/css">
	.st0{fill:#1D1D1B;}
</style>
<g>
	<g>
		<g>
			<path class="st0" d="M156.4,172.4L143.8,162v16.8h-1.6v-20.1l14.2,11.7l14.2-11.7v20.1h-1.6V162L156.4,172.4z M143.7,149.7l1-1.2
				l11.7,9.6l11.8-9.6l1,1.2l-12.7,10.5L143.7,149.7z"/>
			<path class="st0" d="M218.3,163.7c0,8.7-6.6,15.7-15.9,15.7c-9.2,0-15.9-7-15.9-15.7s6.7-15.7,15.9-15.7
				C211.6,147.9,218.3,154.9,218.3,163.7z M216.7,163.7c0-7.8-6-14.3-14.3-14.3c-8.3,0-14.3,6.4-14.3,14.3s6,14.3,14.3,14.3
				C210.8,177.9,216.7,171.5,216.7,163.7z"/>
			<path class="st0" d="M242,148.5c19.7,0,19.7,30.3,0,30.3h-7.8v-30.3H242z M242,177.3c17.4,0,17.4-27.1,0-27.1h-6.2v27.1H242z"/>
			<path class="st0" d="M291.7,150.1h-17.4v8h11.3v1.6h-12.9v-11.1h18.9V150.1z M291.7,178.8h-18.9v-11.1h12.9v1.6h-11.3v8h17.4
				V178.8z"/>
			<path class="st0" d="M305.3,170.3c0,5.2,4.8,7.6,9.3,7.6c4.6,0,9.3-1.9,9.3-7.1c0-2.8-1.3-5.5-5.8-7.2
				c-5.4-2.1-12.1-3.2-12.1-8.7c0-4.5,4.3-6.9,8.6-6.9c4.2,0,8.3,2.3,8.3,6.9h-1.6c0-3.6-3.4-5.4-6.9-5.4c-3.4,0-6.8,1.8-6.8,5.4
				c0,4.3,5.7,5.4,10.9,7.3c5.4,2.1,7,5.1,7,8.5c0,5.9-4.9,8.7-10.9,8.7c-4.6,0-10.8-2.4-10.8-9.1H305.3z"/>
			<path class="st0" d="M338.4,148.5h19.4v1.6h-8.9v28.7h-1.6v-28.7h-8.9V148.5z"/>
		</g>
	</g>
	<g>
		<path class="st0" d="M47.7,14.2c-14.5,0-24,5.8-24,15.5c0,29.3,63.5,14,63.4,55c0,18.7-16.6,30.8-40.8,30.8
			c-16.4,0-32.6-7.1-43.2-17.3l5.8-11.1c10.5,10,24.8,15.8,37.6,15.8c16.3,0,26.4-6.6,26.4-17.6C73,55.1,9.5,71.1,9.5,30.6
			c0-17.7,15.6-29,39-29c13.1,0,26.5,4.2,35.8,10.5l-5.5,11.5C68.7,16.9,56.8,14.2,47.7,14.2z"/>
		<path class="st0" d="M325.2,75.8V115h-12.7V76.1l-43.7-74h13.4l36.6,59.2l36.1-59.2h13.2L325.2,75.8z"/>
		<path class="st0" d="M494.9,2.1V14h-63.7v37.9h56.9v11.8h-56.9V103h65.8V115h-78.7V2.1H494.9z"/>
		<path class="st0" d="M189.1,2.1h-13.4L129.6,115h13.5l18.8-47.3l59,47l0.1,0.3h13.9L189.1,2.1z M166.9,55.1l15.3-38.5l29.2,73.9
			L166.9,55.1z"/>
	</g>
	<g>
		<g>
			<path class="st0" d="M156.4,172.4L143.8,162v16.8h-1.6v-20.1l14.2,11.7l14.2-11.7v20.1h-1.6V162L156.4,172.4z M143.7,149.7l1-1.2
				l11.7,9.6l11.8-9.6l1,1.2l-12.7,10.5L143.7,149.7z"/>
			<path class="st0" d="M218.3,163.7c0,8.7-6.6,15.7-15.9,15.7c-9.2,0-15.9-7-15.9-15.7s6.7-15.7,15.9-15.7
				C211.6,147.9,218.3,154.9,218.3,163.7z M216.7,163.7c0-7.8-6-14.3-14.3-14.3c-8.3,0-14.3,6.4-14.3,14.3s6,14.3,14.3,14.3
				C210.8,177.9,216.7,171.5,216.7,163.7z"/>
			<path class="st0" d="M242,148.5c19.7,0,19.7,30.3,0,30.3h-7.8v-30.3H242z M242,177.3c17.4,0,17.4-27.1,0-27.1h-6.2v27.1H242z"/>
			<path class="st0" d="M291.7,150.1h-17.4v8h11.3v1.6h-12.9v-11.1h18.9V150.1z M291.7,178.8h-18.9v-11.1h12.9v1.6h-11.3v8h17.4
				V178.8z"/>
			<path class="st0" d="M305.3,170.3c0,5.2,4.8,7.6,9.3,7.6c4.6,0,9.3-1.9,9.3-7.1c0-2.8-1.3-5.5-5.8-7.2
				c-5.4-2.1-12.1-3.2-12.1-8.7c0-4.5,4.3-6.9,8.6-6.9c4.2,0,8.3,2.3,8.3,6.9h-1.6c0-3.6-3.4-5.4-6.9-5.4c-3.4,0-6.8,1.8-6.8,5.4
				c0,4.3,5.7,5.4,10.9,7.3c5.4,2.1,7,5.1,7,8.5c0,5.9-4.9,8.7-10.9,8.7c-4.6,0-10.8-2.4-10.8-9.1H305.3z"/>
			<path class="st0" d="M338.4,148.5h19.4v1.6h-8.9v28.7h-1.6v-28.7h-8.9V148.5z"/>
		</g>
	</g>
	<g>
		<path class="st0" d="M47.7,14.2c-14.5,0-24,5.8-24,15.5c0,29.3,63.5,14,63.4,55c0,18.7-16.6,30.8-40.8,30.8
			c-16.4,0-32.6-7.1-43.2-17.3l5.8-11.1c10.5,10,24.8,15.8,37.6,15.8c16.3,0,26.4-6.6,26.4-17.6C73,55.1,9.5,71.1,9.5,30.6
			c0-17.7,15.6-29,39-29c13.1,0,26.5,4.2,35.8,10.5l-5.5,11.5C68.7,16.9,56.8,14.2,47.7,14.2z"/>
		<path class="st0" d="M325.2,75.8V115h-12.7V76.1l-43.7-74h13.4l36.6,59.2l36.1-59.2h13.2L325.2,75.8z"/>
		<path class="st0" d="M494.9,2.1V14h-63.7v37.9h56.9v11.8h-56.9V103h65.8V115h-78.7V2.1H494.9z"/>
		<path class="st0" d="M189.1,2.1h-13.4L129.6,115h13.5l18.8-47.3l59,47l0.1,0.3h13.9L189.1,2.1z M166.9,55.1l15.3-38.5l29.2,73.9
			L166.9,55.1z"/>
	</g>
</g>
</svg>
