<?xml version="1.0" encoding="utf-8"?>
<!-- Generator: Adobe Illustrator 24.0.1, SVG Export Plug-In . SVG Version: 6.00 Build 0)  -->
<svg version="1.1" id="Layer_1" xmlns="http://www.w3.org/2000/svg" xmlns:xlink="http://www.w3.org/1999/xlink" x="0px" y="0px"
	 viewBox="0 0 2177 99.9" style="enable-background:new 0 0 2177 99.9;" xml:space="preserve">
<style type="text/css">
	.st0{fill-rule:evenodd;clip-rule:evenodd;fill:url(#Path_1_);}
	.st1{fill:#FFFFFF;}
	.st2{fill-rule:evenodd;clip-rule:evenodd;fill:url(#Fill-1_1_);}
	.st3{fill-rule:evenodd;clip-rule:evenodd;fill:#FF5F00;}
	.st4{fill-rule:evenodd;clip-rule:evenodd;fill:#EB001B;}
	.st5{fill-rule:evenodd;clip-rule:evenodd;fill:#F79E1B;}
	.st6{fill-rule:evenodd;clip-rule:evenodd;fill:#1E64FF;}
	.st7{fill-rule:evenodd;clip-rule:evenodd;fill:#495057;}
	.st8{fill-rule:evenodd;clip-rule:evenodd;fill:url(#Fill-1_4_);}
	.st9{fill:#C69C6D;}
	.st10{fill:#808080;}
	.st11{fill:#00A99D;}
	.st12{fill-rule:evenodd;clip-rule:evenodd;fill:#323E48;}
	.st13{fill:#323E48;}
	.st14{fill-rule:evenodd;clip-rule:evenodd;fill:#00ADBB;}
</style>
<title>logo-band</title>
<g id="American_Express_1_" transform="translate(294.000000, 0.000000)">
	
		<radialGradient id="Path_1_" cx="834.32" cy="155.1819" r="3.8067" gradientTransform="matrix(30 0 0 -30 -23623.9668 4672.481)" gradientUnits="userSpaceOnUse">
		<stop  offset="0" style="stop-color:#9DD5F6"/>
		<stop  offset="7.110000e-02" style="stop-color:#98D3F5"/>
		<stop  offset="0.1575" style="stop-color:#89CEF3"/>
		<stop  offset="0.2516" style="stop-color:#70C6EF"/>
		<stop  offset="0.3514" style="stop-color:#4EBBEA"/>
		<stop  offset="0.4546" style="stop-color:#23ADE3"/>
		<stop  offset="0.5" style="stop-color:#0DA6E0"/>
		<stop  offset="1" style="stop-color:#2E77BC"/>
	</radialGradient>
	<polyline id="Path_41_" class="st0" points="1506.5,2.1 1384.1,2.1 1384.1,87.1 1506.5,87.1 1506.5,59.1 	"/>
	<g id="Group_9_" transform="translate(0.000000, 6.600000)">
		<path id="Shape_29_" class="st1" d="M1395.2,25.6l-2.3-5.7l-2.3,5.7H1395.2z M1446.5,23.3c-0.6,0.3-1.1,0.3-1.7,0.3h-4v-3.1h4.2
			c0.6,0,1.1,0,1.7,0.3s0.8,0.6,0.8,1.1C1447.3,22.5,1447,23,1446.5,23.3z M1475.9,25.6l-2.3-5.7l-2.3,5.7H1475.9z M1421,31.8h-3.4
			V20.5l-4.8,11.3h-3.1l-4.8-11.3v11.3h-7.1l-1.1-3.1h-7.1l-1.4,3.1h-3.7l5.9-14.4h5.1l5.7,13.6V17.4h5.7l4.5,9.6l4-9.6h5.7V31.8z
			 M1434.8,31.8h-11.3V17.4h11.3v3.1h-7.9V23h7.6v2.8h-7.6v2.8h7.9V31.8z M1451,21.3c0,2.3-1.4,3.4-2.3,3.7c0.8,0.3,1.4,0.8,1.7,1.1
			c0.6,0.8,0.6,1.4,0.6,2.5v2.8h-3.4v-1.7c0-0.8,0-2-0.6-2.8c-0.6-0.6-1.1-0.6-2.5-0.6h-3.7v5.1h-3.4V17.4h7.9c1.7,0,3.1,0,4.2,0.6
			C1450.4,18.8,1451,19.6,1451,21.3z M1456.4,31.8h-3.4V17.4h3.4V31.8z M1496.6,31.8h-4.8l-6.5-10.8v10.8h-6.8l-1.4-3.1h-7.1
			l-1.4,3.1h-4c-1.7,0-3.7-0.3-4.8-1.7c-1.1-1.1-1.7-2.8-1.7-5.4c0-2.3,0.3-4,1.7-5.7c1.1-1.1,2.8-1.7,5.1-1.7h3.4v3.1h-3.1
			c-1.1,0-2,0.3-2.5,0.8s-0.9,1.7-0.9,3.1s0.3,2.5,0.9,3.4c0.6,0.6,1.4,0.8,2.3,0.8h1.4l4.8-11.3h5.1l5.7,13.6V17.4h5.1l5.9,9.9
			v-9.9h3.4L1496.6,31.8L1496.6,31.8z M1384.4,34.6h5.7l1.4-3.1h2.8l1.4,3.1h11.3v-2.5l1.1,2.5h5.9l1.1-2.5v2.5h28.3v-5.1h0.6
			c0.3,0,0.6,0,0.6,0.6v4.5h14.7v-1.1c1.1,0.6,3.1,1.1,5.4,1.1h6.2l1.4-3.1h2.8l1.4,3.1h11.9v-3.1l1.7,3.1h9.6V14.5h-9.3v2.5
			l-1.7-2.5h-9.6v2.5l-1.1-2.3h-13c-2.3,0-4.2,0.3-5.7,1.1v-1.4h-9.1v1.1c-1.1-0.8-2.6-1.1-4-1.1h-33.1l-2,5.1l-2.3-5.1h-10.5v2.5
			l-1.1-2.5h-8.8l-4.2,9.6V34.6z"/>
		<path id="Shape_28_" class="st1" d="M1505.4,45.1h-6.2c-0.6,0-1.1,0-1.4,0.3s-0.6,0.6-0.6,1.1s0.3,0.8,0.8,1.1
			c0.3,0,0.9,0.3,1.4,0.3h1.7c2,0,3.1,0.3,4,1.1l0.3,0.3V45.1z M1505.4,54.8c-0.8,1.1-2.6,1.7-4.5,1.7h-6.5v-3.1h6.5
			c0.6,0,1.1,0,1.4-0.3c0.3-0.3,0.3-0.6,0.3-0.8c0-0.3-0.3-0.8-0.3-0.8c-0.3-0.3-0.6-0.3-1.1-0.3c-3.1,0-7.1,0-7.1-4.5
			c0-2,1.4-4.2,4.8-4.2h6.8v-2.8h-6.2c-2,0-3.4,0.6-4.2,1.1v-1.4h-9.3c-1.4,0-3.1,0.3-4,1.1v-1.1h-16.7v1.1
			c-1.4-0.8-3.7-1.1-4.5-1.1h-11.3v1.1c-1.1-1.1-3.4-1.1-4.8-1.1h-12.2l-2.8,3.1l-2.5-3.1h-18.4v20.1h17.8l2.8-3.1l2.8,3.1h11v-4.8
			h1.1c1.4,0,3.1,0,4.8-0.6v5.4h9.1v-5.1h0.6c0.6,0,0.6,0,0.6,0.6v4.5h27.8c1.7,0,3.7-0.6,4.5-1.4v1.4h8.8c1.7,0,3.7-0.3,5.1-0.8
			V54.8L1505.4,54.8z M1491.8,48.8c0.6,0.6,1.1,1.7,1.1,3.1c0,3.1-2,4.5-5.4,4.5h-6.5v-3.1h6.5c0.6,0,1.1,0,1.4-0.3
			c0.3-0.3,0.3-0.6,0.3-0.8c0-0.3-0.3-0.8-0.3-0.8c-0.3-0.3-0.6-0.3-1.1-0.3c-3.1,0-7.1,0-7.1-4.5c0-2,1.4-4.2,4.8-4.2h6.8v3.1h-6.2
			c-0.6,0-1.1,0-1.4,0.3c-0.3,0.3-0.6,0.6-0.6,1.1s0.3,0.8,0.8,1.1c0.3,0,0.8,0.3,1.4,0.3h1.7C1489.8,47.7,1490.9,48.2,1491.8,48.8z
			 M1461.2,48c-0.6,0.3-1.1,0.3-1.7,0.3h-4.2v-3.1h4.2c0.6,0,1.1,0,1.7,0.3s0.6,0.6,0.6,1.4C1461.8,47.4,1461.5,47.7,1461.2,48z
			 M1463.2,49.7c0.8,0.3,1.4,0.8,1.7,1.1c0.6,0.6,0.6,1.4,0.6,2.5v2.8h-3.4v-1.7c0-0.8,0-2.3-0.6-2.8c-0.6-0.6-1.1-0.6-2.5-0.6h-3.7
			v5.1h-3.4V42h7.9c1.7,0,2.8,0,4,0.6s1.7,1.4,1.7,3.1C1465.4,48.2,1464,49.4,1463.2,49.7z M1467.4,42h11.3v2.8h-7.9v2.5h7.6v2.8
			h-7.6v2.8h7.9v3.1h-11.3V42z M1444.5,48.8h-4.2v-3.7h4.5c1.1,0,2,0.6,2,1.7C1446.7,48,1445.9,48.8,1444.5,48.8z M1436.8,55
			l-5.1-5.9l5.1-5.7V55z M1423.2,53.3h-8.2v-2.8h7.4v-2.8h-7.4v-2.5h8.5l3.7,4.2L1423.2,53.3z M1450.1,46.8c0,4-2.8,4.8-5.9,4.8
			h-4.2v4.8h-6.5l-4-4.8l-4.2,4.8h-13.6V42h13.6l4.2,4.8l4.2-4.8h10.8C1447.3,42,1450.1,42.9,1450.1,46.8z"/>
	</g>
</g>
<g id="visa_1_" transform="translate(200.000000, 4.000000)">
	
		<linearGradient id="Fill-1_1_" gradientUnits="userSpaceOnUse" x1="918.3593" y1="144.2647" x2="921.2233" y2="144.2647" gradientTransform="matrix(62 0 0 -20 -55849.1133 2923.9387)">
		<stop  offset="0" style="stop-color:#1D1C45"/>
		<stop  offset="1" style="stop-color:#174489"/>
	</linearGradient>
	<path id="Fill-1_3_" class="st2" d="M1177.1,11.2l-11.7,55.3H1151l11.7-55.3H1177.1z M1237.5,46.7l7.4-20.9l4.3,20.9H1237.5z
		 M1253.6,66.4h13.2l-11.5-55.3H1243c-2.9,0-5.2,1.7-6,4l-21.8,51.3h15.2l2.9-8.3h18.3L1253.6,66.4z M1216,48.4
		c0-14.6-20.3-15.5-20-22.1c0-2,2-4,6-4.6c2-0.3,7.7-0.6,14,2.6l2.6-11.7c-3.4-1.4-7.7-2.6-13.5-2.6c-14.3,0-24.1,7.4-24.3,18.3
		c0,8,7.2,12.3,12.6,15.2c5.7,2.6,7.4,4.6,7.4,6.9c0,3.7-4.6,5.4-8.6,5.4c-7.2,0-11.5-2-14.6-3.4l-2.6,12c3.4,1.4,9.5,2.9,16,2.9
		C1206,67.3,1216,59.8,1216,48.4z M1156.5,11.2l-23.2,55.3h-15.2l-11.5-44.1c-0.6-2.9-1.4-3.7-3.4-4.9c-3.4-2-9.2-3.7-14-4.6
		l0.3-1.7h24.3c3.2,0,6,2,6.6,5.7l6,32.1l14.9-37.8H1156.5z"/>
</g>
<g id="mastercard-seeklogo.com_1_" transform="translate(129.000000, 0.000000)">
	<path id="Shape_27_" d="M877.8,88.8V83c0-2.3-1.4-3.8-3.8-3.8c-1.2,0-2.3,0.3-3.2,1.7c-0.6-1.2-1.7-1.7-3.2-1.7
		c-0.9,0-2,0.3-2.6,1.4v-1.2h-2v9.2h2v-5.2c0-1.7,0.9-2.3,2.3-2.3c1.4,0,2,0.9,2,2.3v5.2h2v-5.2c0-1.7,0.9-2.3,2.3-2.3s2,0.9,2,2.3
		v5.2H877.8z M907.8,79.5h-3.2v-2.9h-2v2.9h-2v1.7h1.7v4.3c0,2,0.9,3.5,3.2,3.5c0.9,0,1.7-0.3,2.6-0.6l-0.6-1.7
		c-0.6,0.3-1.2,0.6-1.7,0.6c-0.9,0-1.4-0.6-1.4-1.4v-4h3.2v-2.3H907.8z M924.9,79.2c-1.2,0-2,0.6-2.3,1.4v-1.2h-2v9.2h2v-5.2
		c0-1.4,0.6-2.3,2-2.3c0.3,0,0.9,0,1.2,0.3l0.6-2C926,79.2,925.5,79.2,924.9,79.2z M898.9,80.1c-0.9-0.6-2.3-0.9-3.8-0.9
		c-2.3,0-3.8,1.2-3.8,2.9c0,1.4,1.2,2.3,3.2,2.6h0.9c1.2,0.3,1.7,0.6,1.7,0.9c0,0.6-0.9,1.2-2,1.2c-1.4,0-2.3-0.6-3.2-0.9l-0.9,1.4
		c1.2,0.9,2.6,1.2,4,1.2c2.6,0,4.3-1.2,4.3-2.9s-1.2-2.6-3.2-2.9h-0.9c-0.9,0-1.4-0.3-1.4-0.9s0.6-1.2,1.7-1.2
		c1.2,0,2.3,0.6,2.9,0.9L898.9,80.1z M952.9,79.2c-1.2,0-2,0.6-2.3,1.4v-1.2h-2v9.2h2v-5.2c0-1.4,0.6-2.3,2-2.3c0.3,0,0.9,0,1.2,0.3
		l0.6-2C953.8,79.2,953.2,79.2,952.9,79.2z M926.9,84.2c0,2.9,2,4.9,4.9,4.9c1.4,0,2.3-0.3,3.2-1.2l-0.6-1.7
		c-0.9,0.6-1.4,0.9-2.3,0.9c-1.7,0-2.9-1.2-2.9-2.9c0-1.7,1.2-2.9,2.9-2.9c0.9,0,1.7,0.3,2.3,0.9l0.9-1.7c-0.9-0.9-2-1.2-3.2-1.2
		C928.9,79.2,926.9,81.3,926.9,84.2z M945.7,84.2v-4.6h-2v1.2c-0.6-0.9-1.7-1.4-2.9-1.4c-2.6,0-4.6,2-4.6,4.9s2,4.9,4.6,4.9
		c1.4,0,2.3-0.6,2.9-1.4v1.2h2V84.2z M938.5,84.2c0-1.7,1.2-2.9,2.9-2.9s2.9,1.2,2.9,2.9c0,1.7-1.2,2.9-2.9,2.9
		C939.3,87,938.5,85.6,938.5,84.2z M914.2,79.2c-2.6,0-4.6,2-4.6,4.9s2,4.9,4.6,4.9c1.4,0,2.6-0.3,3.8-1.2l-0.9-1.7
		c-0.9,0.6-1.7,0.9-2.6,0.9c-1.2,0-2.6-0.6-2.9-2.3h6.9v-0.9C918.5,81.3,916.8,79.2,914.2,79.2z M914.2,81c1.2,0,2,0.9,2.3,2.3h-4.9
		C911.9,81.8,912.7,81,914.2,81z M964.5,84.2v-8.1h-2V81c-0.6-0.9-1.7-1.4-2.9-1.4c-2.6,0-4.6,2-4.6,4.9c0,2.9,2,4.9,4.6,4.9
		c1.4,0,2.3-0.6,2.9-1.4v1.2h2V84.2z M957,84.2c0-1.7,1.2-2.9,2.9-2.9c1.7,0,2.9,1.2,2.9,2.9c0,1.7-1.2,2.9-2.9,2.9
		C958.1,87,957,85.6,957,84.2z M889.1,84.2v-4.6h-2v1.2c-0.6-0.9-1.7-1.4-2.9-1.4c-2.6,0-4.6,2-4.6,4.9s2,4.9,4.6,4.9
		c1.4,0,2.3-0.6,2.9-1.4v1.2h2V84.2z M881.5,84.2c0-1.7,1.2-2.9,2.9-2.9s2.9,1.2,2.9,2.9c0,1.7-1.2,2.9-2.9,2.9
		S881.5,85.6,881.5,84.2z"/>
	<rect id="Rectangle_1_" x="898.3" y="9.6" class="st3" width="30.3" height="54"/>
	<path id="Path_40_" class="st4" d="M900.3,36.8c0-11,5.2-20.8,13.3-27.2c-6.1-4.3-13.6-7.2-21.7-7.2c-19.1,0-34.7,15.3-34.7,34.4
		s15.6,34.4,34.7,34.4c8.1,0,15.6-2.9,21.4-7.2C905.5,57.6,900.3,47.7,900.3,36.8z"/>
	<path id="Path_39_" class="st5" d="M970,36.8c0,19.1-15.6,34.4-34.7,34.4c-8.1,0-15.6-2.9-21.4-7.2c8.1-6.4,13.3-16.2,13.3-27.2
		S922,16,913.9,9.6c5.5-4.3,13-7.2,21.1-7.2C954.4,2.4,970,18,970,36.8z"/>
</g>
<g id="Group_8_" transform="translate(0.000000, 0.761905)">
	<path id="Combined-Shape_3_" class="st6" d="M660.1,15.2c1.7-0.9,3.8-0.2,4.7,1.5l0,0l7.5,14.1l7.5-14.1c0.9-1.7,3-2.3,4.7-1.5
		c1.7,0.9,2.4,2.9,1.5,4.6l0,0L670,50c-0.6,1.1-1.7,1.8-2.9,1.8c-0.6,0-1.2-0.1-1.8-0.4c-1.7-0.9-2.4-2.9-1.5-4.6l0,0l4.5-8.5
		l-9.7-18.4C657.7,18.2,658.4,16.1,660.1,15.2z M743.8,14.4c3.8,0,7.3,1.4,10,4.1c1.4,1.3,1.4,3.5,0,4.8c-1.4,1.3-3.6,1.3-4.9,0
		c-1.4-1.3-3.1-2.1-5.1-2.1c-1.9,0-3.7,0.7-5.1,2.1c-1.3,1.3-2.1,3.1-2.1,5c0,1.9,0.7,3.6,2.1,5c1.4,1.3,3.1,2.1,5.1,2.1
		c1.9,0,3.7-0.7,5.1-2.1c1.4-1.3,3.6-1.3,4.9,0c1.4,1.3,1.4,3.5,0,4.8c-2.7,2.6-6.2,4.1-10,4.1c-3.8,0-7.3-1.4-10-4.1
		c-2.7-2.6-4.1-6.1-4.1-9.8c0-3.7,1.5-7.2,4.1-9.8C736.5,15.8,740.1,14.4,743.8,14.4z M772.1,14.4c7.8,0,14.1,6.2,14.1,13.8
		s-6.3,13.8-14.1,13.8c-7.8,0-14.1-6.2-14.1-13.8S764.3,14.4,772.1,14.4z M650.6,14.9c1.9,0,3.5,1.5,3.5,3.4l0,0v20
		c0,1.9-1.6,3.4-3.5,3.4c-1.9,0-3.5-1.5-3.5-3.4l0,0v-20C647.1,16.4,648.7,14.9,650.6,14.9z M709.5,14.9c0.8,0,1.7,0.2,2.4,0.8
		c1.5,1.2,1.7,3.4,0.4,4.8l0,0l-12.3,14.4h9.6c1.9,0,3.5,1.5,3.5,3.4c0,1.9-1.6,3.4-3.5,3.4l0,0h-17.1c-0.8,0-1.6-0.3-2.2-0.8
		c-1.5-1.2-1.7-3.4-0.4-4.8l0,0l12.3-14.4H694c-1.9,0-3.5-1.5-3.5-3.4c0-1.9,1.6-3.4,3.5-3.4l0,0H709.5z M721.6,14.9
		c1.9,0,3.5,1.5,3.5,3.4l0,0v20c0,1.9-1.6,3.4-3.5,3.4c-1.9,0-3.5-1.5-3.5-3.4l0,0v-20C718.2,16.4,719.7,14.9,721.6,14.9z
		 M772.1,21.2c-3.9,0-7.1,3.1-7.1,7c0,3.9,3.2,7,7.1,7c3.9,0,7.1-3.1,7.1-7C779.2,24.4,776,21.2,772.1,21.2z M650.6,4
		c2.1,0,3.9,1.7,3.9,3.8c0,2.1-1.7,3.8-3.9,3.8c-2.1,0-3.9-1.7-3.9-3.8C646.7,5.7,648.5,4,650.6,4z M721.6,4c2.1,0,3.9,1.7,3.9,3.8
		c0,2.1-1.7,3.8-3.9,3.8c-2.1,0-3.9-1.7-3.9-3.8C717.8,5.7,719.5,4,721.6,4z"/>
	<path id="Combined-Shape_2_" class="st7" d="M699.8,62.3c5.9,0,11.7,5,11.7,12.1c0,7.2-5.8,12.1-11.7,12.1c-5.9,0-11.7-5-11.7-12.1
		C688,67.3,693.9,62.3,699.8,62.3z M729.3,62.1c1,0,1.8,0.8,1.8,1.8v20.9c0,1-0.8,1.8-1.8,1.8c-1,0-1.8-0.8-1.8-1.8v-1.8
		c-0.2,1.5-2.3,3.7-5.5,3.7c-3.7,0-8.2-2.9-8.2-9.1c0-6,4.5-9,8.2-9c2.5,0,4.7,1.3,5.5,3.3v-1.4c0-0.1,0-0.2,0-0.3v-6.1
		C727.5,62.9,728.3,62.1,729.3,62.1z M648.2,68.6c0.7,0,1.4,0.6,1.4,1.4v15.1c0,0.8-0.6,1.5-1.4,1.5c-0.8,0-1.4-0.6-1.4-1.5V70
		C646.8,69.2,647.4,68.6,648.2,68.6z M654.7,62.1c0.7,0,1.4,0.6,1.4,1.4v21.6c0,0.7-0.6,1.4-1.4,1.4c-0.8,0-1.4-0.7-1.4-1.4V63.5
		C653.3,62.7,653.9,62.1,654.7,62.1z M667.8,68.5c3.8,0,8.5,3.1,8.5,8.6c0,1.1-0.6,1.6-1.8,1.6L662,78.6c0.3,3.8,3.2,5.6,6.1,5.6
		c1.6,0,2.8-0.4,3.9-1.3c0.5-0.3,0.8-0.5,1.2-0.5c0.6,0,1,0.4,1,1.1c0,0.4-0.2,0.7-0.7,1.3c-1.3,1.2-3.3,1.8-5.5,1.8
		c-4.3,0-8.9-2.9-8.9-9C659.1,71.4,663.9,68.5,667.8,68.5z M742.9,68.5c3.8,0,8.5,3.1,8.5,8.5c0,1.4-0.8,1.9-2.2,1.9l-11.3,0
		c0.4,3.2,2.8,4.7,5.5,4.7c1.4,0,2.3-0.3,3.4-1c0.6-0.3,0.9-0.5,1.4-0.5c0.8,0,1.2,0.5,1.2,1.3c0,0.4-0.2,0.9-0.9,1.5
		c-1.3,1.1-3.1,1.7-5.3,1.7c-4.4,0-9.1-2.8-9.1-9C734.1,71.4,739,68.5,742.9,68.5z M722.5,71.6c-2.5,0-5.2,1.9-5.2,5.9
		c0,4,2.8,6,5.2,6c2.3,0,5.1-1.8,5.1-6C727.6,73.3,724.8,71.6,722.5,71.6z M699.8,65.8c-4.1,0-7.9,3.5-7.9,8.7
		c0,5.2,3.8,8.6,7.9,8.6c4.1,0,7.9-3.5,7.9-8.6C707.7,69.3,703.9,65.8,699.8,65.8z M667.8,71c-2.5,0-5.4,1.7-5.7,5.5h11.5
		C673.2,72.7,670.3,71,667.8,71z M742.9,71.6c-2.2,0-4.8,1.4-5.1,4.7h10.1C747.5,73,745.1,71.6,742.9,71.6z M648.2,61.7
		c0.7,0,1.4,0.6,1.4,1.4c0,0.8-0.7,1.4-1.4,1.4c-0.8,0-1.5-0.6-1.5-1.4C646.7,62.4,647.4,61.7,648.2,61.7z M703.9,56.1
		c1.1,0,2,0.9,2,1.9c0,1.1-0.9,1.9-2,1.9s-2-0.9-2-1.9C702,57,702.8,56.1,703.9,56.1z M695.6,56.1c1.1,0,2,0.9,2,1.9
		c0,1.1-0.9,1.9-2,1.9c-1.1,0-2-0.9-2-1.9C693.7,57,694.5,56.1,695.6,56.1z"/>
	<g id="Group-3_1_">
		
			<linearGradient id="Fill-1_4_" gradientUnits="userSpaceOnUse" x1="1106.9062" y1="153.6041" x2="1104.3312" y2="153.6041" gradientTransform="matrix(42.0079 0 0 -30.4762 -45881.1641 4728.7153)">
			<stop  offset="0" style="stop-color:#1E64FF"/>
			<stop  offset="1" style="stop-color:#1E64FF;stop-opacity:0"/>
		</linearGradient>
		<path id="Fill-1_2_" class="st8" d="M520.2,4c-6,0-10.8,4.9-10.8,10.9v65.2c0,6,4.8,10.9,10.8,10.9h81.4c4,0,7.7-2.3,9.6-5.9
			l16.8-32.6c0.8-1.5,1.2-3.2,1.2-4.9v-0.2c0-1.7-0.4-3.4-1.2-4.9L611.2,9.8c-1.9-3.6-5.5-5.9-9.6-5.9H520.2z"/>
	</g>
</g>
<g>
	<path class="st9" d="M125.8,10c0,6.4,0,12.8-0.1,19.2c0,1.3,0,2.7,0,4c0,0.7-0.2,0.9-0.9,0.9c-7.4,0-14.7,0-22.1,0
		c-0.8,0-0.9-0.3-0.9-1c0-7.3,0-14.6,0-21.9c0-0.4,0-0.8-0.1-1.2C109.9,10,117.9,10,125.8,10z M120.6,14.5c-1.2,0-2.2,0.1-3.2,0
		c-0.9-0.1-1.4,0.3-1.9,1c-0.9,1.5-1.9,2.8-2.8,4.3c-0.4,0.6-0.9,0.6-1.4,0.4c-0.2-0.1-0.4-0.6-0.4-1c0-1.3,0-2.6,0-3.8
		c0-0.8-0.3-1-1-1c-0.8,0-1.5,0-2.3,0c-0.5,0-0.8,0.2-0.8,0.8c0,0.8,0,1.7,0,2.5c0,3.6,0,7.3,0,10.9c0,0.7,0.2,1,0.9,0.9
		c0.7,0,1.5,0,2.2,0c0.7,0,1-0.2,0.9-0.9c0-1.4,0-2.9,0-4.3c0-0.8,0.4-1,1-0.8c0.3,0.1,0.6,0.3,0.7,0.6c1.1,1.6,2.1,3.3,3.1,4.9
		c0.2,0.2,0.4,0.6,0.6,0.6c1.4,0.1,2.8,0,4.4,0c-0.3-0.5-0.4-0.8-0.6-1.1c-1.3-2-2.6-4.1-4-6.1c-0.3-0.5-0.3-0.8,0-1.3
		c1.3-1.8,2.5-3.7,3.8-5.6C120.2,15.3,120.3,15.1,120.6,14.5z"/>
	<path class="st10" d="M100.2,10c0,0.4-0.1,0.8-0.1,1.2c0,7.3,0,14.6,0,21.9c0,0.8-0.2,1.1-1,1.1c-7.3,0-14.6,0-21.9,0
		c-0.8,0-1-0.2-1-1.1c0-7.3,0-14.6,0-21.9c0-0.4-0.1-0.7-0.1-1.1C84.1,10,92.1,10,100.2,10z M92.4,21.7c0.5-0.7,1.1-1.2,1.4-1.9
		c0.9-2.4-0.7-4.9-3.5-5.1c-2.6-0.2-5.3-0.1-7.9-0.2c-0.6,0-0.8,0.3-0.8,0.9c0,4.4,0,8.9,0,13.3c0,0.7,0.3,0.9,1,0.9
		c2.2,0,4.4,0,6.5,0c1,0,2-0.2,2.9-0.6c1.3-0.4,2.1-1.4,2.4-2.7C94.9,24.2,94.4,23,92.4,21.7z"/>
	<path class="st10" d="M151.9,10c0,7.5,0,15,0,22.5c0,1.7,0.1,1.5-1.6,1.5c-7.1,0-14.2,0-21.3,0c-0.8,0-1.1-0.2-1.1-1.1
		c0-7.3,0-14.6,0-21.9c0-0.4,0-0.7-0.1-1.1C135.9,10,143.9,10,151.9,10z M145.2,21.2c0,2.7,0,5.2,0,7.7c0,0.6,0.2,0.9,0.8,0.8
		c0.8,0,1.5,0,2.3,0c0.6,0,0.8-0.2,0.8-0.8c0-4.5,0-9.1,0-13.6c0-0.6-0.3-0.8-0.8-0.8c-1,0-2,0-3,0c-0.5,0-0.8,0.2-1,0.7
		c-0.6,1.3-1.1,2.5-1.7,3.8c-0.8,1.8-1.6,3.5-2.5,5.4c-0.2-0.5-0.4-0.8-0.6-1.1c-1.2-2.7-2.4-5.3-3.6-8c-0.3-0.6-0.6-0.8-1.2-0.8
		c-0.9,0.1-1.8,0.1-2.7,0c-0.8,0-1,0.3-1,1c0,3,0,6,0,9c0,1.4,0,2.9,0,4.3c0,0.6,0.2,0.8,0.8,0.8c0.1,0,0.3,0,0.4,0
		c2.5,0,2.5,0,2.5-2.5c0-2,0-3.9,0-6.1c1.1,2.4,2.2,4.6,3.1,6.8c0.5,1.4,1.3,1.9,2.8,1.7c0.6-0.1,0.9-0.3,1.2-0.8
		C142.8,26.3,143.9,23.8,145.2,21.2z"/>
	<path class="st10" d="M181.7,56c-0.1,5.3-1,10.5-3.5,15.3c-3,5.7-7.5,9.5-13.9,10.8c-3.4,0.7-6.7,0.6-10-0.5c-1-0.3-1-0.3-1.1,0.7
		c-0.9,5.6-1.8,11.3-2.7,16.9c-0.1,0.5-0.3,0.7-0.8,0.7c-3.9,0-7.8,0-11.7,0c-0.7,0-0.8-0.3-0.7-0.9c1.7-10.1,3.5-20.1,5.2-30.2
		c1.5-8.7,3-17.4,4.4-26.1c0.1-0.5,0.3-0.8,0.9-1c3.7-1.1,7.5-2,11.4-2.3c2.2-0.2,4.5-0.5,6.8-0.5c3,0,5.9,0.5,8.6,1.9
		c4,2.2,6,5.7,6.7,10.1C181.5,52.7,181.5,54.4,181.7,56z M158.7,73.4c2.5-0.1,4.5-1.1,5.9-3.1c0.8-1.2,1.5-2.5,2-3.8
		c1.3-3.4,1.7-7,1.7-10.6c0-1.4-0.3-2.9-0.7-4.2c-0.4-1.6-1.6-2.6-3.2-2.8c-1.7-0.3-3.5-0.1-5.1,0.4c-0.3,0.1-0.6,0.6-0.6,1
		c-0.4,1.8-0.7,3.6-1,5.4c-0.9,5.4-1.9,10.7-2.8,16.1c-0.1,0.6,0.1,0.8,0.6,1C156.6,72.9,157.7,73.2,158.7,73.4z"/>
	<path class="st11" d="M93.5,69.5c0.5,1.6,1,3.1,1.5,4.7c0.3,1,0.6,2.1,1,3.1c0.2,0.6,0.1,0.9-0.4,1.2c-2.6,1.5-5.4,2.6-8.3,3.3
		c-4.3,1-8.6,1.4-13,0.5c-6.3-1.3-10.1-5.3-11.1-11.5c-1.5-9.3,0.9-17.6,7.3-24.5c4-4.2,9-6.5,14.8-6.9c2.9-0.2,5.7-0.1,8.4,0.9
		c4.1,1.5,6.3,4.7,6.4,9.1c0.1,6.1-2.7,10.4-8,13.1c-3.4,1.8-7.1,2.7-10.8,3.2c-1.5,0.2-3,0.4-4.6,0.5c-0.5,0-0.6,0.3-0.6,0.7
		c0.2,3.2,1.9,5.6,5.4,6c3.3,0.4,6.3-0.5,9.2-1.8C91.7,70.4,92.5,70,93.5,69.5z M77,58c3.7-0.4,7.1-1.1,9.9-3.5
		c0.9-0.8,1.4-1.7,1.6-2.8c0.3-1.7-0.8-3.1-2.5-3.2c-2-0.1-3.6,0.6-5,1.9C78.8,52.4,77.7,55,77,58z"/>
	<path class="st10" d="M241.8,69.6c0.9,2.7,1.8,5.3,2.5,7.9c0.1,0.2-0.3,0.7-0.5,0.9c-2.9,1.8-6.1,2.9-9.4,3.6
		c-2.7,0.6-5.4,0.8-8.2,0.7c-4.1-0.2-7.9-1.3-10.9-4.4c-2.2-2.3-3.4-5.1-3.8-8.2c-1.1-8.5,0.9-16.1,6.3-22.7c3.7-4.5,8.5-7.1,14.4-8
		c3.2-0.5,6.3-0.4,9.3,0.5c4.4,1.3,6.8,4.7,6.9,9.3c0.2,7.1-4,11.3-9.4,13.7c-3.5,1.5-7.3,2.3-11.1,2.7c-0.9,0.1-1.8,0.3-2.8,0.3
		c-0.7,0-0.8,0.3-0.8,0.9c0.4,3.8,2.8,6,6.6,6.1c3.5,0,6.6-1.1,9.6-2.7C241,70,241.4,69.8,241.8,69.6z M225.3,57.9
		c0.2,0.1,0.3,0.1,0.4,0.1c3.1-0.3,6-1,8.5-2.7c1.2-0.8,2.2-1.9,2.5-3.4c0.5-2-0.7-3.5-2.7-3.5c-2.3-0.1-4,0.9-5.4,2.5
		C226.9,52.9,225.9,55.3,225.3,57.9z"/>
	<path class="st10" d="M144.5,40.4c-1.4,1.7-2.6,3.2-3.9,4.7c-3.9,4.8-7.9,9.5-11.8,14.3c-0.6,0.7-0.6,1.2-0.3,2
		c3,6.3,6,12.5,8.9,18.8c0.1,0.3,0.2,0.6,0.4,1c-0.4,0-0.6,0.1-0.9,0.1c-4,0-8.1,0-12.1,0c-0.7,0-1-0.2-1.3-0.8
		c-1.3-3-2.6-6-3.9-8.9c-0.1-0.3-0.3-0.6-0.6-1.1c-0.4,0.5-0.8,0.8-1.1,1.2c-2.3,2.9-4.6,5.8-6.9,8.7c-0.5,0.7-1.1,0.9-1.9,0.9
		c-4.1,0-8.1,0-12.2,0c-0.3,0-0.6,0-1.1,0c0.8-1,1.5-1.8,2.1-2.6c5-6,10-11.9,15-17.8c0.5-0.5,0.5-1,0.2-1.6c-2.8-6-5.6-12-8.4-18
		c-0.1-0.2-0.2-0.5-0.3-0.8c0.4,0,0.6,0,0.9,0c3.8,0,7.6,0,11.4,0c0.7,0,1,0.2,1.3,0.8c1.2,2.9,2.4,5.9,3.6,8.8
		c0.1,0.3,0.3,0.6,0.5,1c0.3-0.3,0.5-0.5,0.6-0.7c2.4-3,4.7-6,7-9.1c0.5-0.6,1-0.9,1.8-0.9c3.9,0,7.8,0,11.7,0
		C143.7,40.4,144,40.4,144.5,40.4z"/>
	<path class="st10" d="M314,52.1c-1.6-0.9-3.2-2-5-2.9c-1.6-0.8-3.3-1.1-5.1-0.7c-1.4,0.3-2.5,1-2.8,2.5c-0.3,1.5,0.3,2.7,1.5,3.4
		c1.2,0.7,2.5,1.3,3.7,1.9c2.3,1.1,4.7,1.9,6.8,3.3c3.6,2.3,4.8,5.9,4.4,10.1c-0.7,6.5-4.6,10.2-10.6,11.8
		c-7.9,2.1-15.5,1.1-22.7-3.1c-1-0.6-1-0.6-0.4-1.6c1.4-2.6,2.9-5.2,4.3-7.9c0.3,0.1,0.5,0.2,0.7,0.4c3.1,1.8,6.4,3.3,10.1,3.6
		c1,0.1,2.1-0.1,3.1-0.3c1.2-0.3,1.9-1.2,2.1-2.4c0.2-1.3-0.4-2.2-1.4-2.8c-1.4-0.8-3-1.4-4.5-2c-1.9-0.9-4-1.6-5.8-2.8
		c-3.1-1.9-4.5-5-4.6-8.6c-0.1-4.3,1.1-7.9,4.4-10.8c2.5-2.2,5.5-3.3,8.7-3.8c6.3-1,12.2,0.2,17.4,3.9c0.8,0.6,1.5,1.2,2.2,1.9
		c0.3,0.3,0.4,0.5,0.1,0.8C318.3,48.1,316.1,50.1,314,52.1z"/>
	<path class="st10" d="M278.1,52.4c-1.1-0.8-2.2-1.6-3.4-2.3c-1.7-1-3.6-1.7-5.6-1.7c-0.7,0-1.4,0.2-2.1,0.4c-2.4,1-2.9,3.8-0.8,5.4
		c1.1,0.8,2.3,1.4,3.6,1.9c2,0.9,4,1.6,6,2.7c2.9,1.5,4.9,3.8,5.4,7.1c1.1,6.6-1.8,12.3-8.3,15c-4,1.6-8.1,1.9-12.3,1.6
		c-4.1-0.4-8.1-1.4-11.7-3.5c-2.1-1.2-1.7-0.8-0.8-2.7c1.1-2.1,2.3-4.2,3.4-6.3c0.2-0.3,0.4-0.6,0.6-1c0.4,0.2,0.8,0.4,1.2,0.6
		c2.9,1.7,6.1,3,9.5,3.3c1.2,0.1,2.5-0.1,3.6-0.5c2.1-0.9,2.4-3.5,0.5-4.8c-1.1-0.8-2.4-1.3-3.6-1.8c-1.7-0.7-3.4-1.3-5.1-2.1
		c-3.8-1.8-6-4.8-6.3-9.1c-0.3-4.7,1.1-8.7,4.8-11.7c2.4-2,5.3-2.9,8.3-3.4c4.8-0.8,9.5-0.2,13.9,1.9c2,1,3.9,2.2,5.5,3.8
		c0.4,0.4,0.5,0.6,0.1,1.1c-2,2-4,4.1-6,6.1C278.3,52.3,278.2,52.3,278.1,52.4z"/>
	<path class="st10" d="M198.7,45.8c2.4-3.8,5.6-6.6,10.3-6.8c2.2-0.1,4.4,0.3,6.5,1.6c-0.7,2.1-1.4,4.1-2.1,6.1
		c-0.4,1.3-0.9,2.6-1.3,3.9c-0.2,0.7-0.5,0.9-1.2,0.6c-1.6-0.7-3.4-1.1-5.2-1c-3.5,0.2-5.9,2.7-6.5,6.2c-1.4,8-2.8,16-4.3,24
		c-0.1,0.6-0.3,0.9-1,0.9c-3.8,0-7.7,0-11.5,0c-0.7,0-0.9-0.3-0.8-0.9c1.6-9.2,3.2-18.4,4.9-27.5c0.7-3.7,1.1-7.4,1-11.1
		c0-1.2,0.1-1.3,1.3-1.3c2.8,0,5.6,0,8.4,0c0.8,0,1,0.2,1,1c0,1.5,0.1,2.9,0.2,4.4C198.5,45.8,198.6,45.8,198.7,45.8z"/>
	<path class="st11" d="M0,81.2c2.2-1.6,4.2-3.1,6.3-4.5c2.6-1.9,5.1-3.7,7.7-5.6c0.4-0.3,1-0.5,1.5-0.5c14,0,27.9,0,41.9,0
		c0.5,0,0.9,0,1,0.7c0.6,3.8,2.1,7.1,5,9.9C42.2,81.2,21.2,81.2,0,81.2z"/>
	<path class="st11" d="M10,65.7c0.4-0.3,0.6-0.5,0.8-0.6c4.4-3.2,8.9-6.4,13.3-9.6c0.4-0.3,0.9-0.5,1.4-0.5c11.2,0,22.4,0,33.6,0
		c0.2,0,0.4,0,0.7,0c-0.4,1.6-0.8,3.1-1.1,4.7c-0.3,1.7-0.5,3.4-0.6,5c-0.1,0.7-0.3,0.9-1,0.9c-7.9,0-15.8,0-23.6,0
		c-7.4,0-14.7,0-22.1,0C10.9,65.7,10.6,65.7,10,65.7z"/>
	<path class="st11" d="M70.7,39.7c-3.1,2.3-5.5,4.9-7.5,8c-0.2,0.4-0.5,0.7-0.7,1.2c-0.4,1.2-1.2,1.5-2.5,1.5
		c-13.4-0.1-26.9,0-40.3,0c-0.3,0-0.6,0-1.1,0c0.3-0.3,0.5-0.4,0.7-0.6c4.5-3.2,9-6.5,13.4-9.7c0.3-0.2,0.7-0.4,1.1-0.4
		c12.1,0,24.2,0,36.3,0C70.2,39.7,70.4,39.7,70.7,39.7z"/>
	<path class="st10" d="M87.7,26.6c-2.2,0-2.2,0-2.2-2.2c0-0.8,0.2-1.1,1.1-1.1c0.9,0.1,1.8,0,2.6,0c1.1,0,1.5,0.5,1.5,1.7
		c0,1.1-0.4,1.5-1.5,1.6C88.6,26.6,88.2,26.6,87.7,26.6z"/>
	<path class="st10" d="M87.3,20.7c-2.1-0.1-1.8,0.2-1.8-1.9c0-1.3,0-1.3,1.3-1.3c0.8,0,1.6,0.1,2.4,0.2c0.7,0.1,1,0.6,1,1.2
		c0,0.7-0.1,1.3-0.8,1.5C88.7,20.6,88,20.7,87.3,20.7z"/>
</g>
<g id="Troy-Logo_1_" transform="translate(370.000000, 3.000000)">
	<g id="Group_7_" transform="translate(1.437077, 22.724340)">
		<path id="Path_38_" class="st12" d="M1642.7,52.5h-1.1c0,0-0.3,0-0.3,0.3v0.3h-0.6v-0.6c0-0.3,0.3-0.6,0.6-0.6h3.7
			c0.3,0,0.6,0,0.3,0.6v0.6h-0.6v-0.3v-0.3h-1.4l-1.1,5.1h-0.6L1642.7,52.5z"/>
		<path id="Shape_26_" class="st13" d="M1645.6,54.2C1645.6,54.2,1645.3,53.9,1645.6,54.2l-0.6-0.3v-0.6h0.6c0.3,0,0.6,0,0.3,0.6
			l-0.3,2c0,0.6,0,1.1,0.6,1.1c0.8,0,1.7-0.8,1.7-1.7l0.3-2h0.8l-0.8,3.4V57h0.3v0.6h-0.3c-0.3,0-0.6-0.3-0.3-0.6v-0.3
			c0-0.3,0-0.3,0-0.3l0,0c-0.3,0.6-0.8,1.1-1.7,1.1c-1.1,0-1.4-0.6-1.1-1.4L1645.6,54.2z M1646.7,52h0.6l-0.3,0.8h-0.3V52z
			 M1647.8,52h0.6v0.8h-0.6V52z"/>
		<path id="Path_37_" class="st12" d="M1650.1,54.2C1650.1,54.2,1650.1,53.9,1650.1,54.2l-0.3-0.3v-0.6h0.6c0.3,0,0.6,0,0.3,0.6v0.3
			c0,0.3,0,0.3,0,0.3l0,0c0.3-0.6,0.8-1.1,1.4-1.1h0.3v0.6c0,0,0,0-0.3,0c-0.6,0-1.1,0.6-1.4,1.1c0,0.3-0.3,0.6-0.3,0.8l-0.3,1.7
			h-0.6L1650.1,54.2z"/>
		<path id="Path_36_" class="st12" d="M1653.2,52.8C1653.2,52.5,1653.2,52.5,1653.2,52.8l-0.6-0.3V52h0.6c0.3,0,0.6,0,0.3,0.6
			l-0.3,2.5h0.3c0.3,0,0.3,0,0.6-0.3l1.4-1.4h0.6l-1.4,1.7c-0.3,0.3-0.3,0.3-0.3,0.3l0,0c0,0,0,0,0.3,0.3l0.3,1.4c0,0,0,0.3,0.3,0.3
			h0.3v0.6h-0.6c-0.3,0-0.6,0-0.6-0.3l-0.6-2c0-0.3-0.3-0.3-0.3-0.3h-0.3l-0.6,2.3h-0.6L1653.2,52.8z"/>
		<path id="Shape_25_" class="st13" d="M1657.7,54.2c0,0,0-0.3-0.3-0.3h-0.8l0.3-0.6h1.4c0.8,0,1.1,0,0.8,0.6l-1.7,2.8
			c0,0,0,0.3,0.3,0.3h0.8l-0.3,0.6h-1.1c-0.8,0-1.1-0.3-0.8-0.6L1657.7,54.2z M1658.9,52h1.1l-0.3,0.8h-1.1L1658.9,52z"/>
		<path id="Path_35_" class="st12" d="M1658,58.7c0.3,0,0.6-0.3,0.8-0.6l0.3-0.6l-0.6-3.4c0,0,0-0.3-0.3-0.3l0,0v-0.6h0.3
			c0.3,0,0.6,0,0.6,0.3l0.6,2.5c0,0.3,0,0.6,0,0.6l0,0c0,0,0-0.3,0.3-0.6l1.4-2.5c0.3-0.3,0.3-0.3,0.6-0.3h0.3v0.6l0,0
			c0,0-0.3,0-0.3,0.3l-2.8,4.2c-0.3,0.3-0.8,0.6-1.4,0.6c-0.6,0-0.6-0.3-0.6-0.3l0.3-0.3C1657.4,58.5,1657.4,58.7,1658,58.7"/>
		<path id="Shape_24_" class="st13" d="M1664.5,53.4c1.1,0,1.7,0.8,1.4,2v0.3h-3.1c-0.3,0.8,0.3,1.4,1.1,1.4s1.4-0.6,1.4-0.6
			l0.3,0.3c0,0-0.6,0.6-1.7,0.6s-2-0.8-1.7-2C1662.5,54.2,1663.4,53.4,1664.5,53.4z M1665.4,55.1c0.3-0.8-0.3-1.1-0.8-1.1
			s-1.4,0.6-1.7,1.1H1665.4z"/>
		<polygon id="Path_34_" class="st12" points="1667.4,52 1667.9,52 1667.4,53.4 1666.8,53.4 		"/>
		<path id="Path_33_" class="st12" d="M1668.5,54.2C1668.5,54.2,1668.5,53.9,1668.5,54.2l-0.3-0.3v-0.6h0.6c0.3,0,0.6,0,0.3,0.6v0.3
			c0,0.3,0,0.3,0,0.3l0,0c0.3-0.3,0.8-1.1,1.7-1.1c1.1,0,1.1,0.6,1.1,1.4l-0.3,2V57h0.3v0.6h-0.6c-0.3,0-0.6-0.3-0.3-0.6l0.3-2
			c0-0.6,0.3-1.1-0.6-1.1c-0.6,0-1.4,0.6-1.7,1.1c0,0.3,0,0.3-0.3,0.6l-0.3,2h-0.6L1668.5,54.2z"/>
		<path id="Shape_23_" class="st13" d="M1674.1,54.2c0,0,0-0.3-0.3-0.3h-0.8l0.3-0.6h1.4c0.8,0,1.1,0,0.8,0.6l-1.4,2.8
			c0,0,0,0.3,0.3,0.3h0.8l-0.3,0.6h-1.4c-0.8,0-1.1-0.3-0.8-0.6L1674.1,54.2z M1675.3,52h1.1l-0.3,0.6h-1.1L1675.3,52z"/>
		<path id="Path_32_" class="st12" d="M1675.3,54.2C1675.3,54.2,1675.3,53.9,1675.3,54.2l-0.6-0.3v-0.6h0.6c0.3,0,0.6,0,0.3,0.6v0.3
			c0,0.3,0,0.3,0,0.3l0,0c0.3-0.3,1.1-1.1,2-1.1s1.1,0.6,0.8,1.4l-0.3,2V57h0.3v0.6h-0.6c-0.3,0-0.6-0.3-0.3-0.6l0.3-2
			c0-0.6,0.3-1.1-0.6-1.1c-0.6,0-1.4,0.6-1.7,1.1c0,0.3,0,0.3-0.3,0.6l-0.6,2h-0.3L1675.3,54.2z"/>
		<path id="Shape_22_" class="st13" d="M1685.2,52c1.7,0,2.5,1.1,2.3,2.8c-0.3,1.7-2,2.8-3.4,2.8c-1.7,0-2.5-1.1-2.3-2.8
			C1682.1,53.1,1683.5,52,1685.2,52z M1683.8,57c1.1,0,2.5-1.1,2.8-2.3c0.3-1.4-0.6-2.3-1.7-2.3c-1.1,0-2.5,1.1-2.8,2.3
			C1681.8,56.2,1682.6,57,1683.8,57z M1684.6,50.8h0.6l-0.3,0.6h-0.6L1684.6,50.8z M1685.8,50.8h0.6l-0.3,0.6h-0.6L1685.8,50.8z"/>
		<path id="Shape_21_" class="st13" d="M1690,53.4c0.8,0,1.1,0.8,1.1,0.8l0,0c0,0,0,0,0-0.3l0.3-1.4v-0.3h-0.3v-0.6h0.6
			c0.3,0,0.6,0,0.3,0.6l-0.8,4.2v0.3h0.3v0.6h-0.6c-0.3,0-0.6-0.3-0.3-0.6c0-0.3,0-0.3,0-0.3l0,0c0,0-0.6,0.8-1.4,0.8
			c-1.1,0-1.4-0.8-1.1-2C1688,54.2,1688.9,53.4,1690,53.4 M1690.9,55.6c0.3-0.8,0-1.7-0.8-1.7c-0.6,0-1.4,0.6-1.7,1.7
			c-0.3,0.8,0.3,1.7,0.8,1.7C1689.7,57,1690.6,56.8,1690.9,55.6"/>
		<path id="Shape_20_" class="st13" d="M1694.8,53.4c1.1,0,1.4,0.8,1.4,1.7v0.3h-3.1c-0.3,0.8,0.3,1.7,1.1,1.7
			c0.8,0,1.4-0.6,1.4-0.6l0.3,0.3c0,0-0.8,0.6-1.7,0.6c-1.1,0-2-0.8-1.7-2C1692.6,54.2,1693.7,53.4,1694.8,53.4z M1695.4,55.1
			c0.3-0.8-0.3-1.1-0.8-1.1s-1.4,0.3-1.7,1.1H1695.4z"/>
		<path id="Path_31_" class="st12" d="M1697.1,54.2C1697.4,54.2,1697.1,53.9,1697.1,54.2l-0.6-0.3v-0.6h0.6c0.3,0,0.6,0,0.3,0.6v0.3
			c0,0.3,0,0.3,0,0.3l0,0c0.6-0.6,1.4-1.1,2-1.1c0.8,0,1.1,0.3,1.1,0.8l0,0c0.3-0.3,0.8-0.8,1.7-0.8s1.1,0.6,0.8,1.4l-0.3,2V57h0.3
			v0.6h-0.6c-0.3,0-0.6-0.3-0.3-0.6l0.6-2c0.3-0.6,0-1.1-0.6-1.1s-1.1,0.6-1.4,1.1c0,0.3-0.3,0.3-0.3,0.6l-0.3,2h-0.6l0.6-2.3
			c0-0.6,0.3-1.1-0.6-1.1c-0.6,0-1.1,0.6-1.4,1.1c0,0.3-0.3,0.3-0.3,0.6l-0.8,1.7h-0.6L1697.1,54.2z"/>
		<path id="Shape_19_" class="st13" d="M1706.4,53.4c1.1,0,1.4,0.8,1.4,1.7v0.3h-3.1c-0.3,0.8,0.3,1.7,1.1,1.7s1.4-0.6,1.4-0.6
			l0.3,0.3c0,0-0.8,0.6-1.7,0.6c-1.1,0-2-0.8-1.7-2C1704.2,54.2,1705.3,53.4,1706.4,53.4z M1707,55.1c0.3-0.8-0.3-1.1-0.8-1.1
			c-0.6,0-1.4,0.3-1.7,1.1H1707z"/>
		<path id="Path_30_" class="st12" d="M1711.8,55.1l-0.8-2.5c0-0.3-0.3-0.3-0.3-0.3l0,0v-0.6h0.3c0.3,0,0.6,0,0.6,0.6l0.6,1.4
			c0,0.3,0.3,0.6,0.3,0.6l0,0c0,0,0.3-0.3,0.6-0.6l1.1-1.1c0.3-0.3,0.6-0.6,0.8-0.6h0.3v0.6l0,0c-0.3,0-0.3,0-0.3,0.3l-2,2.5
			l-0.6,2.3h-1.1L1711.8,55.1z"/>
		<path id="Shape_18_" class="st13" d="M1716.6,53.4c1.1,0,2,0.8,1.7,2c-0.3,1.1-1.4,2-2.5,2s-2-0.8-1.7-2
			C1714.4,54.5,1715.5,53.4,1716.6,53.4z M1715.8,57c0.8,0,1.7-0.6,2-1.7c0.3-0.8-0.3-1.4-1.1-1.4s-1.7,0.6-2,1.4
			C1714.4,56.5,1714.9,57,1715.8,57z M1716.1,52h0.6l-0.3,0.6h-0.6L1716.1,52z M1717.2,52h0.6v0.6h-0.6V52z"/>
		<path id="Path_29_" class="st12" d="M1719.4,54.2C1719.4,54.2,1719.4,53.9,1719.4,54.2l-0.6-0.3v-0.6h0.8c0.3,0,0.6,0,0.3,0.6v0.3
			c0,0.3,0,0.3,0,0.3l0,0c0.3-0.3,0.8-1.1,1.7-1.1s1.1,0.6,0.8,1.4l-0.3,2c0,0,0,0.3,0.3,0.3h0.3v0.6h-0.6c-0.3,0-0.6-0.3-0.3-0.6
			l0.3-2c0-0.6,0.3-1.1-0.6-1.1c-0.6,0-1.4,0.6-1.7,1.1c-0.3,0.3-0.3,0.3-0.3,0.6l-0.3,2h-0.6L1719.4,54.2z"/>
		<path id="Path_28_" class="st12" d="M1724.3,53.9h-0.6v-0.6h0.6l0.3-1.1h0.6l-0.3,1.1h1.1v0.6h-1.1l-0.6,2
			c-0.3,0.8,0.3,1.1,0.6,1.1h0.3v0.6c0,0,0,0-0.3,0c-0.6,0-1.4-0.3-1.1-1.4L1724.3,53.9z"/>
		<path id="Shape_17_" class="st13" d="M1728.5,53.4c1.1,0,1.4,0.8,1.4,1.7v0.3h-3.1c-0.3,0.8,0.3,1.7,1.1,1.7s1.4-0.6,1.4-0.6
			l0.3,0.3c0,0-0.6,0.6-1.7,0.6s-2-0.8-1.7-2C1726.2,54.2,1727.4,53.4,1728.5,53.4z M1729.4,55.1c0.3-0.8-0.3-1.1-0.8-1.1
			s-1.4,0.3-1.7,1.1H1729.4z"/>
		<path id="Path_27_" class="st12" d="M1731.1,54.2C1731.1,54.2,1731.1,53.9,1731.1,54.2l-0.6-0.3v-0.6h0.6c0.3,0,0.6,0,0.3,0.6v0.3
			c0,0.3,0,0.3,0,0.3l0,0c0.6-0.6,1.1-1.1,1.7-1.1c0.8,0,1.1,0.3,1.1,0.8l0,0c0.3-0.3,1.1-0.8,1.7-0.8c0.8,0,1.1,0.6,0.8,1.7l-0.3,2
			v0.3h0.3v0.6h-0.6c-0.3,0-0.6-0.3-0.3-0.6l0.3-2c0.3-0.6,0-1.1-0.6-1.1s-1.1,0.6-1.4,1.1c0,0.3-0.3,0.3-0.3,0.6l-0.3,2h-0.6
			l0.6-2.3c0-0.6,0.3-1.1-0.6-1.1c-0.6,0-1.1,0.6-1.4,1.1c0,0.3,0,0.3-0.3,0.6l-0.3,2h-0.6L1731.1,54.2z"/>
		<path id="Shape_2_" class="st13" d="M1739.3,54.2c0,0,0-0.3-0.3-0.3h-0.8l0.3-0.6h1.4c0.8,0,1.1,0,0.8,0.6l-1.4,2.8
			c0,0,0,0.3,0.3,0.3h0.8l-0.3,0.6h-1.4c-0.8,0-1.1-0.3-0.8-0.6L1739.3,54.2z M1740.4,52h1.1l-0.3,0.6h-1.1L1740.4,52z"/>
	</g>
	<g id="Group_5_">
		<g id="Path_21_">
			<path id="Path_26_" class="st12" d="M1790.7,21.4c-2.3,0-4.8,1.4-5.9,3.7L1774,49.7l-4-24.6c-0.6-2.3-2-3.7-4.5-3.7h-13.9
				l11.9,41.1c0.3,0.8,0.3,1.7,0,2.5c-0.6,3.4-3.7,6.2-7.1,6.2h-7.6c-2,0-3.1,1.1-4,4l-1.7,10.2h13.6c7.1,0,15.3-3.4,21-13.3
				l27.2-50.7H1790.7z"/>
			<path id="Path_25_" class="st12" d="M1657.1,8.9c4,0,5.9,1.7,5.4,5.7l-1.1,6.5h9.3l-2,11.6h-9.6l-2.5,14.4
				c-0.8,5.1,4,5.7,7.1,5.7c0.6,0,1.1,0,1.4,0l-2.3,12.7c-0.6,0-1.4,0.3-2.8,0.3c-7.1,0-20.4-2-17.8-16.7l2.8-16.4h-7.1l2-11.6h6.8
				l2.3-12.2H1657.1z"/>
			<g id="Group_6_" transform="translate(24.190798, 4.196481)">
				<path id="Path_24_" class="st14" d="M1711.6,17.5L1709,31c2.8,1.4,5.1,4.5,5.1,7.9c0,4.5-3.4,8.5-7.9,9.1l-2.3,13.6
					c0.3,0,0.8,0,1.4,0c12.5,0,22.7-10.2,22.7-22.7C1727.7,29.1,1720.9,20.3,1711.6,17.5z"/>
				<path id="Path_23_" class="st14" d="M1700.8,47.2c-2.8-1.4-5.1-4.5-5.1-7.9c0-4.5,3.4-8.5,7.9-9.1l2.5-13.6c-0.3,0-0.8,0-1.4,0
					c-12.5,0-22.7,10.2-22.7,22.7c0,10.2,6.8,18.7,16.1,21.5L1700.8,47.2z"/>
			</g>
			<path id="Path_22_" class="st12" d="M1676,21.4h7.9c4,0,5.9,1.7,5.4,5.7l-0.8,4.8c3.1-5.9,9.3-11,16.1-11c0.8,0,1.7,0.3,1.7,0.3
				l-2.5,14.7c0,0-1.1-0.3-3.1-0.3c-3.7,0-9.6,1.1-13,7.6c-0.8,1.7-1.4,3.7-1.7,5.9l-2.8,16.4h-15L1676,21.4z"/>
		</g>
		<path id="Shape_1_" class="st13" d="M1804.9,67.5c0,1.4-0.6,2.5-1.4,3.4c-0.8,0.8-2,1.4-3.4,1.4s-2.5-0.6-3.4-1.4
			c-0.8-0.8-1.4-2-1.4-3.4s0.6-2.5,1.4-3.4c0.8-0.8,2-1.4,3.4-1.4s2.5,0.6,3.4,1.4C1804.3,65,1804.9,66.1,1804.9,67.5z M1804,67.5
			c0-1.1-0.3-2-1.1-2.8c-0.8-0.8-1.7-1.1-2.8-1.1c-1.1,0-2,0.3-2.8,1.1c-0.8,0.8-1.1,1.7-1.1,2.8c0,1.1,0.3,2,1.1,2.8
			c0.8,0.8,1.7,1.1,2.8,1.1c1.1,0,2-0.3,2.8-1.1C1803.7,69.5,1804,68.7,1804,67.5z M1802,70.1h-0.8l-1.1-2.3h-0.8v2.3h-0.8V65h1.7
			c0.6,0,0.8,0.3,1.1,0.6c0.3,0.3,0.6,0.6,0.6,1.1c0,0.8-0.3,1.1-1.1,1.4L1802,70.1z M1801.2,66.4c0-0.3,0-0.6-0.3-0.6
			c-0.3,0-0.6-0.3-0.8-0.3h-0.8v1.7h0.8c0.3,0,0.6,0,0.8-0.3C1800.9,67,1801.2,66.7,1801.2,66.4z"/>
	</g>
</g>
</svg>
